
<svg width="34" height="6" viewBox="0 0 34 6" fill="none" xmlns="http://www.w3.org/2000/svg">
<path d="M6.40139 0.517578C9.28012 0.517578 12.3536 1.21543 12.3536 2.96679C12.3536 4.72485 9.28012 5.4831 6.40139 5.4831C3.52265 5.4831 0.449219 4.78524 0.449219 3.03389C0.449219 1.27583 3.52265 0.517578 6.40139 0.517578ZM6.41529 4.53025C7.69473 4.53025 9.61389 4.18133 9.61389 3.00034C9.61389 1.81935 7.69473 1.47042 6.41529 1.47042H6.38748C5.10804 1.47042 3.18889 1.81935 3.18889 3.00034C3.18889 4.18133 5.10804 4.53025 6.38748 4.53025H6.41529Z" fill="black"/>
<path d="M21.707 0.665202C21.7279 0.658491 21.7487 0.651781 21.7696 0.651781H24.6344C24.7804 0.651781 24.8291 0.832956 24.7039 0.900057L19.8365 3.48347C19.7948 3.5036 19.767 3.55057 19.767 3.59754V5.21469C19.767 5.2885 19.7044 5.34889 19.6279 5.34889H17.2151C17.1386 5.34889 17.076 5.2885 17.076 5.21469V3.59754C17.076 3.55057 17.0482 3.5036 17.0065 3.48347L12.146 0.900057C12.0208 0.832956 12.0695 0.651781 12.2086 0.651781H15.0734C15.0943 0.651781 15.1221 0.658491 15.1429 0.665202L18.3554 2.37629C18.3972 2.39642 18.4458 2.39642 18.4875 2.37629L21.707 0.665202Z" fill="black"/>
<path d="M25.6118 0.785985C25.6118 0.712173 25.6674 0.651781 25.7439 0.651781H28.122C28.1915 0.651781 28.2541 0.712173 28.2541 0.785985V4.24843C28.2541 4.32224 28.3167 4.38263 28.3932 4.38263H33.4206C33.497 4.38263 33.5527 4.44302 33.5527 4.51683V5.21469C33.5527 5.2885 33.497 5.34889 33.4206 5.34889H25.7439C25.6674 5.34889 25.6118 5.2885 25.6118 5.21469V0.785985Z" fill="black"/>
</svg>
